<svg xmlns="http://www.w3.org/2000/svg" viewBox="0 0 64 80" x="0px" y="0px"><g data-name="21-cloud hosting"><path d="M32,38c-4.81641,0-10,1.252-10,4V60c0,2.748,5.18359,4,10,4s10-1.252,10-4V42C42,39.252,36.81641,38,32,38Zm0,24c-5.24951,0-8-1.48633-8-2V56.5238A19.00207,19.00207,0,0,0,32,58a19.00207,19.00207,0,0,0,8-1.4762V60C40,60.51367,37.24951,62,32,62Zm0-6c-5.24951,0-8-1.48633-8-2V50.5238A19.00207,19.00207,0,0,0,32,52a19.00207,19.00207,0,0,0,8-1.4762V54C40,54.51367,37.24951,56,32,56Zm0-6c-5.24951,0-8-1.48633-8-2V44.5238A19.00207,19.00207,0,0,0,32,46a19.00207,19.00207,0,0,0,8-1.4762V48C40,48.51367,37.24951,50,32,50Zm0-6c-5.24951,0-8-1.48633-8-2s2.75049-2,8-2,8,1.48633,8,2S37.24951,44,32,44Z"/><path d="M54,38c-4.81641,0-10,1.252-10,4V60c0,2.748,5.18359,4,10,4s10-1.252,10-4V42C64,39.252,58.81641,38,54,38Zm0,2c5.24951,0,8,1.48633,8,2s-2.75049,2-8,2-8-1.48633-8-2S48.75049,40,54,40Zm0,22c-5.24951,0-8-1.48633-8-2V56.5238A19.00207,19.00207,0,0,0,54,58a19.00207,19.00207,0,0,0,8-1.4762V60C62,60.51367,59.24951,62,54,62Zm0-6c-5.24951,0-8-1.48633-8-2V50.5238A19.00207,19.00207,0,0,0,54,52a19.00207,19.00207,0,0,0,8-1.4762V54C62,54.51367,59.24951,56,54,56Zm0-6c-5.24951,0-8-1.48633-8-2V44.5238A19.00207,19.00207,0,0,0,54,46a19.00207,19.00207,0,0,0,8-1.4762V48C62,48.51367,59.24951,50,54,50Z"/><path d="M10,38C5.18359,38,0,39.252,0,42V60c0,2.748,5.18359,4,10,4s10-1.252,10-4V42C20,39.252,14.81641,38,10,38Zm0,24c-5.24951,0-8-1.48633-8-2V56.5238A19.00207,19.00207,0,0,0,10,58a19.00207,19.00207,0,0,0,8-1.4762V60C18,60.51367,15.24951,62,10,62Zm0-6c-5.24951,0-8-1.48633-8-2V50.5238A19.00207,19.00207,0,0,0,10,52a19.00207,19.00207,0,0,0,8-1.4762V54C18,54.51367,15.24951,56,10,56Zm0-6c-5.24951,0-8-1.48633-8-2V44.5238A19.00207,19.00207,0,0,0,10,46a19.00207,19.00207,0,0,0,8-1.4762V48C18,48.51367,15.24951,50,10,50Zm0-6c-5.24951,0-8-1.48633-8-2s2.75049-2,8-2,8,1.48633,8,2S15.24951,44,10,44Z"/><path d="M10,24H54a.99974.99974,0,0,0,1-1,9.981,9.981,0,0,0-8.0459-9.80566A7.01078,7.01078,0,0,0,40,7a6.94089,6.94089,0,0,0-1.42041.14746,9.99617,9.99617,0,0,0-19.38574.89844A7.01108,7.01108,0,0,0,13,15a6.91978,6.91978,0,0,0,.186,1.5957A7.0134,7.0134,0,0,0,9,23,.99974.99974,0,0,0,10,24Zm4.68994-5.82031a1,1,0,0,0,.66651-1.335A4.99314,4.99314,0,0,1,19.95312,9.999a1.03673,1.03673,0,0,0,1.09913-.88672,7.99444,7.99444,0,0,1,15.814-.53222,1.00078,1.00078,0,0,0,1.34326.75683,4.98968,4.98968,0,0,1,6.792,4.61719c-.002.02539-.00439.0791-.00439.10449a1.00024,1.00024,0,0,0,.89063.99414A7.97961,7.97961,0,0,1,52.938,22H11.10156A5.012,5.012,0,0,1,14.68994,18.17969Z"/><path d="M22,26H20v4H10a.99974.99974,0,0,0-1,1v5h2V32H21a.99974.99974,0,0,0,1-1Z"/><path d="M55,36V31a.99974.99974,0,0,0-1-1H33V26H31V36h2V32H53v4Z"/></g><text x="0" y="79" fill="#000000" font-size="5px" font-weight="bold" font-family="'Helvetica Neue', Helvetica, Arial-Unicode, Arial, Sans-serif">Created by tulpahn</text><text x="0" y="84" fill="#000000" font-size="5px" font-weight="bold" font-family="'Helvetica Neue', Helvetica, Arial-Unicode, Arial, Sans-serif">from the Noun Project</text></svg>